<?xml version="1.0" encoding="UTF-8" standalone="no"?>
<!-- Created with Inkscape (http://www.inkscape.org/) -->

<svg
   width="800"
   height="200"
   viewBox="0 0 211.66667 52.916665"
   version="1.1"
   id="svg1"
   inkscape:export-filename="gardyn_of_eden_banner.png"
   inkscape:export-xdpi="96"
   inkscape:export-ydpi="96"
   xmlns:inkscape="http://www.inkscape.org/namespaces/inkscape"
   xmlns:sodipodi="http://sodipodi.sourceforge.net/DTD/sodipodi-0.dtd"
   xmlns="http://www.w3.org/2000/svg"
   xmlns:svg="http://www.w3.org/2000/svg">
  <sodipodi:namedview
     id="namedview1"
     pagecolor="#393536"
     bordercolor="#000000"
     borderopacity="0.25"
     inkscape:showpageshadow="2"
     inkscape:pageopacity="0.0"
     inkscape:pagecheckerboard="0"
     inkscape:deskcolor="#d1d1d1"
     inkscape:document-units="mm"
     inkscape:export-bgcolor="#393536ff" />
  <defs
     id="defs1">
    <rect
       x="265.84744"
       y="53.396709"
       width="471.48157"
       height="109.06562"
       id="rect1" />
    <clipPath
       clipPathUnits="userSpaceOnUse"
       id="clipPath11">
      <path
         d="M 2723.24,266.879 H 732.645 V 1121.58 H 2723.24 Z"
         transform="translate(0,-2.5e-5)"
         id="path11" />
    </clipPath>
  </defs>
  <g
     inkscape:label="Layer 1"
     inkscape:groupmode="layer"
     id="layer1">
    <path
       id="path10"
       d="m 1156.14,592.23 c -6.01,-0.07 -11.95,-0.07 -17.89,-0.07 -5.95,0 -11.88,0 -17.89,0.07 -7.6,57.7 -59.4,106.602 -117.5,110.7 -58.098,4.199 -116.297,-36.899 -131.899,-93.098 30.699,-9.004 64.801,-5.602 93.199,8.699 28.598,14.5 51.3,40 62.4,70.098 6.9,-2.801 13.8,-5.598 20.7,-8.399 -14.2,-38.5 -44.9,-70.699 -82.697,-86.5 -37.903,-16 -82.301,-15.3 -119.801,1.59 -3.407,1.41 9.199,35.211 10.699,38.61 5.398,12.699 12.602,24.601 21.102,35.398 16.996,21.5 39.898,38.703 65.898,48.102 34.297,12.402 73.299,11.699 107.299,-1.801 36.7,-14.801 67.6,-45 83,-81.797 1.78,-3.773 2.52,-6.262 5.49,-11.832 3.19,5.738 3.75,7.32 5.49,11.832 15.4,36.797 46.3,66.996 83,81.797 34,13.5 73,14.203 107.3,1.801 26,-9.399 48.9,-26.602 65.9,-48.102 8.5,-10.797 15.7,-22.699 21.1,-35.398 1.5,-3.399 14.1,-37.2 10.7,-38.61 -37.5,-16.89 -81.9,-17.59 -119.8,-1.59 -37.8,15.801 -68.5,48 -82.7,86.5 6.9,2.801 13.8,5.598 20.7,8.399 11.1,-30.098 33.8,-55.598 62.4,-70.098 28.4,-14.301 62.5,-17.703 93.2,-8.699 -15.6,56.199 -73.8,97.297 -131.9,93.098 -58.1,-4.098 -109.9,-53 -117.5,-110.7 z m 37.1,-130.199 V 451.93 h -28.65 c -1.9,10.89 -10.6,19.5 -21.6,21.5 v 98.3 h 14.15 v -73.699 z m 22,-58.902 c 0,-9.508 -7.8,-17.301 -17.3,-17.301 -9.5,0 -17.31,7.793 -17.31,17.301 0,9.601 7.81,17.301 17.31,17.301 9.5,0 17.3,-7.7 17.3,-17.301 z m -76.95,26.703 c -9.5,0 -17.3,7.797 -17.3,17.297 0,9.601 7.8,17.301 17.3,17.301 9.6,0 17.3,-7.7 17.3,-17.301 0,-9.5 -7.7,-17.297 -17.3,-17.297 z m -26.3,22.098 h -28.73 v 10.101 l 36,36 v 73.699 h 14.33 v -98.3 c -10.9,-2 -19.6,-10.61 -21.6,-21.5 z m -127.631,140.3 c 32.301,18 58.201,46.899 71.901,82.801 23.2,-14.203 40.3,-36.301 49,-62.301 0,0 2.5,-8.8 3,-11.609 0.7,-2.891 1.3,-5.992 1.6,-8.891 z m 168.081,135.5 c 0,10.2 12.6,16.2 19.9,8.899 0.1,0 0.1,-0.199 0.3,-0.199 7.6,-7.7 16.2,-14.2 25.5,-19.5 0.8,-0.399 1.7,-1.102 2,-1.899 0,-0.199 0.1,-0.5 0,-0.801 -0.3,-0.601 -0.8,-1 -1.3,-1.402 -18.1,-10.898 -34.1,-25.699 -46.4,-42.797 z m -28.38,0 v -57.699 c -12.3,17.098 -28.3,31.899 -46.4,42.797 -0.5,0.402 -1,0.801 -1.3,1.402 -0.1,0.301 0,0.602 0,0.801 0.3,0.797 1.2,1.5 2,1.899 9.3,5.3 17.9,11.8 25.5,19.5 0.2,0 0.2,0.199 0.3,0.199 7.3,7.301 19.9,1.301 19.9,-8.899 z m -5.6,23.602 c 5.8,6.797 10.8,14.098 15.1,21.699 1,0 2,-0.101 3,-0.101 0.57,0 1.13,0.07 1.69,0.082 0.56,-0.012 1.12,-0.082 1.69,-0.082 1,0 2,0.101 3,0.101 4.3,-7.601 9.3,-14.902 15.1,-21.699 -6.56,-0.871 -13.18,-1.16 -19.79,-1.133 -6.62,-0.027 -13.23,0.262 -19.79,1.133 z m -246.101,16 c -14.097,19.797 -22.902,42.098 -26.097,65.398 -0.699,3.7 -0.903,7.399 -1.203,11.098 -0.496,8.602 -0.403,17.102 0.504,25.703 7.996,3.598 16.097,6.399 24.398,8.399 3.598,0.898 7.102,1.699 10.898,2.398 24.399,4.203 49.704,2.402 73.903,-5.898 9.894,-3.301 19.093,-7.7 27.797,-12.7 4.504,-2.699 8.902,-5.601 13.101,-8.699 -1.699,4.797 -3,10 -4.097,15.199 -2.5,11 -3.602,22.399 -3.5,34.102 0.296,24.797 6.699,47.996 17.597,68.398 1.7,3.301 3.6,6.602 5.6,9.7 4.5,7.3 9.7,14.101 15.4,20.4 8.5,-1.799 16.6,-4.299 24.6,-7.502 3.4,-1.398 6.9,-2.797 10.2,-4.598 22.2,-10.902 41.6,-27.3 56.3,-48.199 5.9,-8.301 10.9,-17.203 15,-26.5 2.05,-4.703 3.91,-9.312 5.49,-14.293 1.57,4.981 3.43,9.59 5.49,14.293 4.1,9.297 9.1,18.199 15,26.5 14.7,20.899 34.1,37.297 56.3,48.199 3.3,1.801 6.8,3.2 10.2,4.598 8,3.203 16.1,5.703 24.6,7.502 5.7,-6.299 10.9,-13.1 15.4,-20.4 2,-3.098 3.9,-6.399 5.6,-9.7 10.9,-20.402 17.3,-43.601 17.6,-68.398 0.1,-11.703 -1,-23.102 -3.5,-34.102 -1.1,-5.199 -2.4,-10.402 -4.1,-15.199 4.2,3.098 8.6,6 13.1,8.699 8.7,5 17.9,9.399 27.8,12.7 24.2,8.3 49.5,10.101 73.9,5.898 3.8,-0.699 7.3,-1.5 10.9,-2.398 8.3,-2 16.4,-4.801 24.4,-8.399 0.9,-8.601 1,-17.101 0.5,-25.703 -0.3,-3.699 -0.5,-7.398 -1.2,-11.098 -3.2,-23.3 -12,-45.601 -26.1,-65.398 -14,-20.102 -32.3,-35.504 -52.6,-46.301 -2.8,1.301 -5.6,2.5 -8.4,3.699 -4.2,1.801 -8.5,3.399 -12.9,4.7 -3.4,1.101 -7.1,2.101 -10.7,2.902 25.9,8.098 49.3,24.297 66,48.098 13.3,18.8 21,40.199 23,62.5 0.3,3.5 0.4,7.101 0.4,10.601 -3.3,1.098 -6.8,2.199 -10.2,2.797 -9.4,2.301 -19,3.402 -28.6,3.402 -13.7,0 -27.6,-2.3 -41.1,-6.8 -21.1,-7.2 -38.9,-19.301 -52.9,-34.602 -6.5,-7.199 -12.2,-15 -16.9,-23.398 -9,-15.801 -14.6,-33.5 -16,-51.801 -0.4,-3.5 -0.6,-7.098 -0.6,-10.5 0.6,-0.297 -1.6,-1.5 -2.4,-1.699 -9.4,-2.602 -18.8,-6 -27.7,-10.399 -0.8,0.399 -1.8,0.899 -2.6,1.297 -5.2,2.801 -10.2,5.902 -15.1,9.301 -13.2,9.301 -42.8,44.101 -50.9,62.402 -2.3,4.899 -4.2,9.797 -5.6,14.899 -0.03,-0.09 -0.06,-0.168 -0.09,-0.258 -0.03,0.09 -0.07,0.168 -0.09,0.258 -1.4,-5.102 -3.3,-10 -5.6,-14.899 -8.1,-18.301 -37.7,-53.101 -50.9,-62.402 -4.9,-3.399 -9.9,-6.5 -15.1,-9.301 -0.8,-0.398 -1.8,-0.898 -2.6,-1.297 -8.9,4.399 -18.3,7.797 -27.7,10.399 -0.8,0.199 -3,1.402 -2.4,1.699 0,3.402 -0.2,7 -0.6,10.5 -1.4,18.301 -7,36 -16,51.801 -4.7,8.398 -10.4,16.199 -16.9,23.398 -14.005,15.301 -31.801,27.402 -52.899,34.602 -13.5,4.5 -27.402,6.8 -41.106,6.8 -9.597,0 -19.199,-1.101 -28.597,-3.402 -3.399,-0.598 -6.899,-1.699 -10.199,-2.797 0,-3.5 0.101,-7.101 0.402,-10.601 2,-22.301 9.699,-43.7 23,-62.5 16.699,-23.801 40.098,-40 65.996,-48.098 -3.598,-0.801 -7.301,-1.801 -10.695,-2.902 -4.403,-1.301 -8.703,-2.899 -12.903,-4.7 -2.796,-1.199 -5.601,-2.398 -8.398,-3.699 -20.305,10.797 -38.606,26.199 -52.602,46.301 z M 1166.64,592.23 c 0.3,2.899 0.9,6 1.6,8.891 0.5,2.809 3,11.609 3,11.609 8.7,26 25.8,48.098 49,62.301 13.7,-35.902 39.6,-64.801 71.9,-82.801 z m 99.75,-144.101 c 9.5,0 17.3,-7.699 17.3,-17.301 0,-9.496 -7.8,-17.297 -17.3,-17.297 -9.6,0 -17.3,7.801 -17.3,17.297 0,9.602 7.7,17.301 17.3,17.301 z m 5.1,47.992 h 33.6 l 34.1,34.109 v -69.8 l -24.9,-24.899 h -21.7 c -1.9,10.801 -10.4,19.399 -21.1,21.5 z m -71.15,25 c -9.6,0 -17.3,7.809 -17.3,17.309 0,9.601 7.7,17.3 17.3,17.3 9.5,0 17.3,-7.699 17.3,-17.3 0,-9.5 -7.8,-17.309 -17.3,-17.309 z m 200.45,41.008 c 11.2,0 20.3,-9.098 20.3,-20.301 0,-11.199 -9.1,-20.297 -20.3,-20.297 -11.2,0 -20.3,9.098 -20.3,20.297 0,11.203 9.1,20.301 20.3,20.301 z m -305.03,-159 c 0,-9.508 -7.7,-17.301 -17.3,-17.301 -9.5,0 -17.3,7.793 -17.3,17.301 0,9.601 7.8,17.301 17.3,17.301 9.6,0 17.3,-7.7 17.3,-17.301 z m -65.87,27.699 c 0,-9.496 -7.7,-17.297 -17.3,-17.297 -9.5,0 -17.301,7.801 -17.301,17.297 0,9.602 7.801,17.301 17.301,17.301 9.6,0 17.3,-7.699 17.3,-17.301 z m -43.503,4.703 H 964.59 l -24.801,24.899 v 70.902 l 35.199,-35.211 h 32.902 v -38.992 c -10.902,-2 -19.605,-10.598 -21.503,-21.598 z m -107.102,86 c -11.297,0 -20.398,9.098 -20.398,20.297 0,11.203 9.101,20.301 20.398,20.301 11.203,0 20.305,-9.098 20.305,-20.301 0,-11.199 -9.102,-20.297 -20.305,-20.297 z m 196.875,34.199 c 9.5,0 17.3,-7.699 17.3,-17.3 0,-9.5 -7.8,-17.309 -17.3,-17.309 -9.6,0 -17.3,7.809 -17.3,17.309 0,9.601 7.7,17.3 17.3,17.3 z m 293.98,16 c 22.6,0 45.3,5 65.8,14.098 l 6.9,3.203 -0.9,7.5 c -2.7,19.899 -9,39.399 -18.7,57.09 -13.7,24.707 -34.3,47.109 -59.2,60.91 -0.1,0 0,1.899 0,1.899 19,11.398 35.8,26.8 48.5,44.902 14.2,20.199 23.3,42.398 27.3,66.199 l 1.8,15.699 c 0.7,9.301 -1.3,33.2 -1.3,33.2 0,0 -22.5,9.3 -31.2,11.398 l -15.2,3 c -25.1,3.801 -51,1.602 -75.5,-6.699 -7.3,-2.5 -14.6,-5.801 -21.8,-9.5 1.5,9.101 2.1,18.402 2,27.902 -0.3,24.399 -6.4,48.5 -17.3,70.199 l -7.4,13.098 c -4.7,7.5 -20.5,26.202 -20.5,26.202 0,0 -23.5,-5.8 -31.9,-9.2 l -14.4,-6.6 c -22.2,-11.601 -41.8,-28.699 -56.7,-49.699 -4.7,-6.5 -8.5,-13.5 -12.1,-20.5 -0.03,0.051 -0.06,0.098 -0.09,0.16 -0.03,-0.062 -0.06,-0.109 -0.09,-0.16 -3.6,7 -7.4,14 -12.1,20.5 -14.9,21 -34.5,38.098 -56.7,49.699 l -14.4,6.6 c -8.4,3.4 -31.9,9.2 -31.9,9.2 0,0 -15.8,-18.702 -20.5,-26.202 l -7.4,-13.098 c -10.902,-21.699 -17,-45.8 -17.301,-70.199 -0.101,-9.5 0.5,-18.801 2,-27.902 -7.199,3.699 -14.5,7 -21.796,9.5 -24.504,8.301 -50.403,10.5 -75.504,6.699 l -15.2,-3 C 858.66,885.73 836.16,876.43 836.16,876.43 c 0,0 -2,-23.899 -1.301,-33.2 l 1.801,-15.699 c 4,-23.801 13.102,-46 27.301,-66.199 12.699,-18.102 29.5,-33.504 48.5,-44.902 0,0 0.098,-1.899 0,-1.899 -24.902,-13.801 -45.504,-36.203 -59.199,-60.91 -9.703,-17.691 -16,-37.191 -18.699,-57.09 l -0.903,-7.5 6.903,-3.203 c 20.496,-9.098 43.199,-14.098 65.792,-14.098 h 203.505 v -66.199 h -92.57 v 3.301 l 24.8,24.898 h 7.77 c 2.3,-12.5 13.1,-22 26.3,-22 14.7,0 26.7,12 26.7,26.7 0,14.8 -12,26.8 -26.7,26.8 -13.2,0 -24,-9.601 -26.3,-22 h -11.67 l -30.3,-30.5 v -7.199 h -29.003 l -40.899,41 h -29.504 c -2.296,14.199 -14.496,25.098 -29.199,25.098 -16.496,0 -29.797,-13.399 -29.797,-29.801 0,-16.398 13.301,-29.699 29.797,-29.699 14.703,0 26.903,10.801 29.199,25 h 21.907 v -80.598 l 30.297,-30.41 h 25.699 c 2.203,-12.5 13.101,-21.992 26.203,-21.992 14.7,0 26.7,11.992 26.7,26.699 0,13.102 -9.5,24.004 -22,26.301 v 38.992 h 86.77 l -30.3,-30.191 v -36.5 c -12.5,-2.301 -22,-13.2 -22,-26.301 0,-14.699 12,-26.699 26.7,-26.699 14.8,0 26.8,12 26.8,26.699 0,13.101 -9.6,24 -22,26.301 v 13 h 28.83 c 2.2,-12.5 13.1,-22 26.2,-22 13.1,0 24,9.5 26.3,22 h 28.65 v -13 c -12.5,-2.301 -22,-13.2 -22,-26.301 0,-14.699 12,-26.699 26.7,-26.699 14.7,0 26.7,12 26.7,26.699 0,13.101 -9.5,24 -22,26.301 v 36.5 l -30.2,30.191 h 89.65 v -38.992 c -12.7,-2.098 -22.5,-13 -22.5,-26.301 0,-14.707 12,-26.699 26.8,-26.699 13.1,0 24,9.492 26.2,21.992 h 25.6 l 30.4,30.41 v 80.598 h 22.9 c 2.3,-14.199 14.5,-25 29.3,-25 16.4,0 29.8,13.301 29.8,29.699 0,16.402 -13.4,29.801 -29.8,29.801 -14.8,0 -27,-10.899 -29.3,-25.098 h -29.4 l -40.9,-41 h -29.7 v 7.199 l -30.4,30.5 h -14.55 c -2.2,12.399 -13.1,22 -26.2,22 -14.8,0 -26.7,-12 -26.7,-26.8 0,-14.7 11.9,-26.7 26.7,-26.7 13.1,0 24,9.5 26.2,22 h 10.65 l 24.9,-24.898 v -3.301 h -95.45 v 66.199 z m -326.08,242.801 c 0.9,-1.101 1.9,-2 2.9,-3.101 8.3,-8.5 17.7,-15.899 27.9,-21.801 3.1,-1.699 11.3,-4.098 12,-7.801 0.5,-3.199 -9.6,-11.598 -11.8,-13.699 -1,-1 -2,-1.899 -3.3,-2 -1.4,-0.199 -2.6,0.5 -3.8,1.203 -6.3,3.699 -12.6,7.598 -18.7,11.797 3.6,-12 6.1,-24.297 7.3,-36.699 0,0.8 25.4,18.5 27.9,21 9.1,9.101 16.8,19.398 22.9,30.699 12.1,22.801 17.4,48.902 14.3,74.902 -2.5,20.801 -10.1,40.801 -22.6,58.5 -9.7,13.797 -22,25.5 -35.9,34.297 -5.8,3.5 -11.8,6.703 -18.2,9.402 -3.2,1.301 -6.6,2.7 -9.9,3.7 -2.2,-2.801 -4,-5.7 -6,-8.801 -11.3,-18.699 -18,-40.5 -18.2,-64 -0.4,-22.899 5.3,-45 16.5,-64.399 4.5,-8.199 10.1,-15.902 16.7,-23.199 z m 147.98,-51.101 c 2.5,-2.5 27.9,-20.2 27.9,-21 1.2,12.402 3.7,24.699 7.3,36.699 -6.1,-4.199 -12.4,-8.098 -18.7,-11.797 -1.2,-0.703 -2.4,-1.402 -3.8,-1.203 -1.3,0.101 -2.3,1 -3.3,2 -2.2,2.101 -12.3,10.5 -11.8,13.699 0.7,3.703 8.9,6.102 12,7.801 10.2,5.902 19.6,13.301 27.9,21.801 1,1.101 2,2 2.9,3.101 6.6,7.297 12.2,15 16.7,23.199 11.2,19.399 16.9,41.5 16.5,64.399 -0.2,23.5 -6.9,45.301 -18.2,64 -2,3.101 -3.8,6 -6,8.801 -3.3,-1 -6.7,-2.399 -9.9,-3.7 -6.4,-2.699 -12.4,-5.902 -18.2,-9.402 -13.9,-8.797 -26.2,-20.5 -35.9,-34.297 -12.5,-17.699 -20.1,-37.699 -22.6,-58.5 -3.1,-26 2.2,-52.101 14.3,-74.902 6.1,-11.301 13.8,-21.598 22.9,-30.699"
       style="fill:#80cc28;fill-opacity:1;fill-rule:nonzero;stroke:none"
       transform="matrix(0.04736143,0,0,-0.04736143,-1.8738522,59.338059)"
       clip-path="url(#clipPath11)" />
    <text
       xml:space="preserve"
       transform="matrix(0.26458333,0,0,0.26458333,2.2878945,3.4321647)"
       id="text1"
       style="font-size:53.3333px;white-space:pre;shape-inside:url(#rect1);fill:#000000"><tspan
         x="265.84766"
         y="102.05407"
         id="tspan3"><tspan
           style="font-family:'Myanmar MN';-inkscape-font-specification:'Myanmar MN';fill:#ffffff"
           id="tspan2">Gardyn of Eden</tspan></tspan></text>
  </g>
</svg>
